<svg xmlns="http://www.w3.org/2000/svg" xmlns:xlink="http://www.w3.org/1999/xlink" width="194.106" height="46" viewBox="0 0 194.106 46">
  <defs>
    <style>.a{stroke:rgba(0,0,0,0);stroke-miterlimit:10;fill:url(#a);}</style>
    <linearGradient id="a" x1="0.287" y1="0.133" x2="0" y2="0.703" gradientUnits="objectBoundingBox">
      <stop offset="0" stop-color="#a75afe"/>
      <stop offset="1" stop-color="#6f5afe"/>
    </linearGradient>
  </defs>
  <path class="a" d="M25.7,44.643.517,15.868a2.089,2.089,0,0,1,.076-2.833L12.663.633A2.094,2.094,0,0,1,14.162,0H38.8a2.1,2.1,0,0,1,1.5.633l12.071,12.4a2.089,2.089,0,0,1,.075,2.833L27.271,44.643a1.047,1.047,0,0,1-1.575,0ZM11.173,15.579,26.089,32.626a.524.524,0,0,0,.788,0L41.793,15.579a.523.523,0,0,0-.394-.867H32.107a1.048,1.048,0,0,0-.788.357L27.271,19.7a1.047,1.047,0,0,1-1.575,0L21.648,15.07a1.048,1.048,0,0,0-.788-.357H11.567A.523.523,0,0,0,11.173,15.579ZM84.151,24.9V20.013c0-3.534,2.717-4.389,5.738-4.389,2.983,0,5.738.912,5.738,4.351v4.865c0,3.515-2.774,4.389-5.757,4.389C86.849,29.228,84.151,28.354,84.151,24.9Zm3.343-5.111v5.282c0,1.235,1.178,1.558,2.375,1.558,1.084,0,2.413-.38,2.413-1.52V19.747c0-1.14-1.329-1.52-2.413-1.52C88.673,18.227,87.494,18.55,87.494,19.785ZM69.654,29.1,66.8,24.953a8.034,8.034,0,0,1-.949-4.295V15.852h3.325v4.56a6.1,6.1,0,0,0,.571,3.116l1.786,2.813h.133l1.748-2.775a5.522,5.522,0,0,0,.57-3.135V15.852H77.14v4.617a8.681,8.681,0,0,1-.836,4.123l-3.04,4.5Zm113.107-.019-.133-.171V26.454h6.289c.7,0,.741-.361.741-.626v-1.1c0-.57-.266-.741-.76-.741h-3.667c-2.261,0-2.926-1.026-2.926-2.527v-2.7c0-1.481.665-2.983,3.211-2.983h6.821l.171.152V18.4h-6.024c-.7,0-.836.4-.836.76v1.1c0,.589.381.684.723.684h3.819c1.748,0,2.793.722,2.793,2.356v2.622c0,2.09-.987,3.155-3.23,3.155ZM170.563,29V15.852h3.344V26.34H180.9V29Zm-5.32,0V15.852h3.344V29Zm-5.3,0V26.188h-4.788V29h-3.116V20.108c0-3.515,2.565-4.484,5.624-4.484,3.02,0,5.605,1.121,5.605,4.389V29Zm-4.788-9.139V23.6h4.788V19.842c0-1.311-1.482-1.615-2.413-1.615C156.578,18.227,155.154,18.588,155.154,19.861ZM146.414,29l-3.021-3.724H142.12V29h-3.344V15.852h7.866c2.546,0,3.572,1.426,3.572,3.5V21.78c0,2.3-1.349,3.059-3.362,3.192L150.29,29Zm-4.294-6.061h3.8c.589,0,.969-.209.969-.855V19.272c0-.645-.38-.855-.969-.855h-3.8ZM125.058,29V18.474h-4.237V15.852h11.8v2.623h-4.236V29Zm-15.675,0V15.852h10.337v2.623h-6.992v2.565H118.2V23.68h-5.472v2.7h6.992V29ZM97.451,29V15.852h3.343V26.34h6.992V29ZM78.983,29V15.852h3.343V29Z" transform="translate(0.624 0.5)"/>
</svg>
